<svg width="96" height="96" xmlns="http://www.w3.org/2000/svg" xmlns:xlink="http://www.w3.org/1999/xlink" overflow="hidden"><defs><clipPath id="clip0"><rect x="592" y="312" width="96" height="96"/></clipPath></defs><g clip-path="url(#clip0)" transform="translate(-592 -312)"><path d="M637.5 332C622 332 609.5 344.5 609.5 360 609.5 364.9 610.8 369.5 613 373.5 615.1 371.3 617.4 369.1 619.9 366.7 626.2 360.8 633.6 354.8 639.8 350.4 640.2 350.1 640.6 349.9 641.1 349.9 642.2 349.9 643.1 350.8 643.1 351.9 643.1 352.6 642.8 353.1 642.3 353.5L642.3 353.5C633.4 359.9 621.6 369.8 613.6 378.8 613.6 378.8 612.5 380 612 380.6L612 380.6C607.5 385.9 604.5 390.7 604.5 394.1L610.5 394.1C610.5 391.9 614 387.1 619.3 381.4 624.2 385.6 630.5 388.1 637.5 388.1 642.5 388.1 647.3 386.8 651.4 384.4L651.4 384.4C672.8 372.5 675.5 350.6 675.5 326 675.5 326 652.2 332.4 637.5 332Z" fill="#C5E0B4"/></g></svg>