<svg width="96" height="96" xmlns="http://www.w3.org/2000/svg" xmlns:xlink="http://www.w3.org/1999/xlink" overflow="hidden"><defs><clipPath id="clip0"><rect x="828" y="235" width="96" height="96"/></clipPath></defs><g clip-path="url(#clip0)" transform="translate(-828 -235)"><path d="M861 265.8C861 270.771 856.971 274.8 852 274.8 847.029 274.8 843 270.771 843 265.8 843 260.829 847.029 256.8 852 256.8 856.971 256.8 861 260.829 861 265.8Z" fill="#70AD47"/><path d="M909 265.8C909 270.771 904.971 274.8 900 274.8 895.029 274.8 891 270.771 891 265.8 891 260.829 895.029 256.8 900 256.8 904.971 256.8 909 260.829 909 265.8Z" fill="#70AD47"/><path d="M894 309.2 894 300.2C894 298.8 893.4 297.4 892.2 296.6 889.8 294.6 886.6 293.2 883.4 292.4 881.2 291.8 878.6 291.2 876 291.2 873.6 291.2 871 291.6 868.6 292.4 865.4 293.2 862.4 294.8 859.8 296.6 858.6 297.6 858 298.8 858 300.2L858 309.2 894 309.2Z" fill="#70AD47"/><path d="M885 279.8C885 284.771 880.971 288.8 876 288.8 871.029 288.8 867 284.771 867 279.8 867 274.829 871.029 270.8 876 270.8 880.971 270.8 885 274.829 885 279.8Z" fill="#70AD47"/><path d="M916.2 282.6C913.8 280.6 910.6 279.2 907.4 278.4 905.2 277.8 902.6 277.2 900 277.2 897.6 277.2 895 277.6 892.6 278.4 891.4 278.8 890.2 279.2 889 279.8L889 280C889 283.4 887.6 286.6 885.4 288.8 889.2 290 892.2 291.6 894.6 293.4 895.2 294 895.8 294.4 896.2 295.2L918 295.2 918 286.2C918 284.8 917.4 283.4 916.2 282.6Z" fill="#70AD47"/><path d="M857.4 293.4 857.4 293.4C860.2 291.4 863.4 289.8 866.6 288.8 864.4 286.4 863 283.4 863 280 863 279.8 863 279.8 863 279.6 861.8 279.2 860.6 278.6 859.4 278.4 857.2 277.8 854.6 277.2 852 277.2 849.6 277.2 847 277.6 844.6 278.4 841.4 279.4 838.4 280.8 835.8 282.6 834.6 283.4 834 284.8 834 286.2L834 295.2 855.6 295.2C856.2 294.4 856.6 294 857.4 293.4Z" fill="#70AD47"/></g></svg>